<svg xmlns="http://www.w3.org/2000/svg" viewBox="0 0 100 100">
  <defs>
    <linearGradient id="tailGrad" x1="0%" y1="0%" x2="100%" y2="100%">
      <stop offset="0%" style="stop-color:#5ba3f5"/>
      <stop offset="100%" style="stop-color:#4a90e2"/>
    </linearGradient>
  </defs>
  <path d="M50 85 C50 85 42 65 20 50 C10 43 5 32 12 22 C19 12 28 18 36 28 C42 36 47 42 49 46 C49.5 47 50 46 50 44 C50 42 50.5 47 51 46 C53 42 58 36 64 28 C72 18 81 12 88 22 C95 32 90 43 80 50 C58 65 50 85 50 85Z" fill="url(#tailGrad)"/>
</svg>
